# xmcd
#
# Track frame offsets: 
#        150
#        12842
#        22432
#        35366
#        50086
#        61080
#        74977
#        88017
#        99889
#        110117
#        122642
#        133927
#        146130
#        161643
#        172561
#        182696
#        194371
#        207603
#        216589
#        229337
#
# Disc length: 3238 seconds
#
# Revision: 1
# Processed by: cddbd v1.5.2PL0 Copyright (c) Steve Scherf et al.
# Submitted via: ExactAudioCopy v1.0b1
#
DISCID=380ca414
DTITLE=Various Artist - The History Of Country and Western Music - Vol.
DTITLE=16 {1949}
DYEAR=2004
DGENRE=Country
TTITLE0=Bill Haley - Candy And Women
TTITLE1=Tennessee Ernie Ford - Anticipation Blues
TTITLE2=Johnny Lee Wills - Rag Mop
TTITLE3=Sons Of The Pioneers - Riders In The Sky
TTITLE4=Jerry Irby - Too Many Women
TTITLE5=Don McCord - Can't Live Without You
TTITLE6=Bill Haley - Cotton Haired Gal
TTITLE7=Tennessee Ernie Ford - Smokey Mountain Boogie
TTITLE8=Louis Innis - Jug Band Boogie
TTITLE9=Pee Wee Hughes - Country Boys Blues
TTITLE10=Tommy Scott - Gonna Paint The Town Red
TTITLE11=Little Jimmy Dickens - A-Sleeping At The Foot Of The Bed
TTITLE12=Bill Haley - My Mom Heard Me Crying
TTITLE13=Tennessee Ernie Ford - Tennessee Border
TTITLE14=Dan Pickett - Baby Don't You Want To Go
TTITLE15=Tommy Duncan - Chattanooga Shoe Shine Boy
TTITLE16=Wayne Raney - Pan American Boogie
TTITLE17=Tommy Mooney - Bingo Boogie
TTITLE18=Bill Haley - Behind The Eight Ball
TTITLE19=Tennessee Ernie Ford - Mule Train
EXTD=
EXTT0=
EXTT1=
EXTT2=
EXTT3=
EXTT4=
EXTT5=
EXTT6=
EXTT7=
EXTT8=
EXTT9=
EXTT10=
EXTT11=
EXTT12=
EXTT13=
EXTT14=
EXTT15=
EXTT16=
EXTT17=
EXTT18=
EXTT19=
PLAYORDER=
